<svg xmlns="http://www.w3.org/2000/svg" width="1200" height="700" viewBox="0 0 1200 700">
      <rect width="100%" height="100%" fill="#ffffff" />
      <text x="80" y="48" font-size="28" font-weight="800" fill="#0f172a">Action Distribution</text>
      <line x1="80" y1="620.0" x2="1120" y2="620.0" stroke="#e2e8f0" stroke-width="2" /><text x="62" y="626.0" text-anchor="end" font-size="18" fill="#64748b">0</text><line x1="80" y1="485.0" x2="1120" y2="485.0" stroke="#e2e8f0" stroke-width="2" /><text x="62" y="491.0" text-anchor="end" font-size="18" fill="#64748b">3188</text><line x1="80" y1="350.0" x2="1120" y2="350.0" stroke="#e2e8f0" stroke-width="2" /><text x="62" y="356.0" text-anchor="end" font-size="18" fill="#64748b">6377</text><line x1="80" y1="215.0" x2="1120" y2="215.0" stroke="#e2e8f0" stroke-width="2" /><text x="62" y="221.0" text-anchor="end" font-size="18" fill="#64748b">9566</text><line x1="80" y1="80.0" x2="1120" y2="80.0" stroke="#e2e8f0" stroke-width="2" /><text x="62" y="86.0" text-anchor="end" font-size="18" fill="#64748b">12755</text>
      <rect x="135.5" y="441.3" width="235.7" height="178.7" rx="18" fill="#0ea5e9" /><text x="253.3" y="648" text-anchor="middle" font-size="22" fill="#334155">add_to_cart</text><text x="253.3" y="429.3" text-anchor="middle" font-size="20" font-weight="700" fill="#0f172a">4220</text><rect x="482.1" y="360.3" width="235.7" height="259.7" rx="18" fill="#0ea5e9" /><text x="600.0" y="648" text-anchor="middle" font-size="22" fill="#334155">click</text><text x="600.0" y="348.3" text-anchor="middle" font-size="20" font-weight="700" fill="#0f172a">6134</text><rect x="828.8" y="80.0" width="235.7" height="540.0" rx="18" fill="#0ea5e9" /><text x="946.7" y="648" text-anchor="middle" font-size="22" fill="#334155">view</text><text x="946.7" y="68.0" text-anchor="middle" font-size="20" font-weight="700" fill="#0f172a">12755</text>
    </svg>