<svg xmlns="http://www.w3.org/2000/svg" width="1800" height="1300" viewBox="0 0 1800 1300">
      <defs>
        <filter id="softShadow" x="-20%" y="-20%" width="140%" height="140%">
          <feDropShadow dx="0" dy="14" stdDeviation="18" flood-color="#0f172a" flood-opacity="0.12" />
        </filter>
      </defs>
      <rect width="100%" height="100%" fill="#f8fafc" />
      <rect x="40" y="24" width="1720" height="1240" rx="36" fill="#ffffff" filter="url(#softShadow)" />
      <text x="70" y="92" font-size="30" font-weight="800" fill="#0f172a">KB_Graph | TechShop behavioral knowledge graph</text>
      
      <g>
        <rect x="70" y="38" width="16" height="16" rx="4" fill="#8b5cf6" />
        <text x="94" y="52" font-size="16" fill="#334155">Behavior profile</text>
        <rect x="250" y="38" width="16" height="16" rx="4" fill="#0ea5e9" />
        <text x="274" y="52" font-size="16" fill="#334155">User</text>
        <rect x="340" y="38" width="16" height="16" rx="4" fill="#16a34a" />
        <text x="364" y="52" font-size="16" fill="#334155">Product</text>
        <rect x="450" y="38" width="16" height="16" rx="4" fill="#f97316" />
        <text x="474" y="52" font-size="16" fill="#334155">Brand</text>
        <rect x="530" y="38" width="16" height="16" rx="4" fill="#334155" />
        <text x="554" y="52" font-size="16" fill="#334155">Category</text>
      </g>
    
      <line x1="560.0" y1="868.2" x2="1090.0" y2="1067.3" stroke="#38bdf8" stroke-opacity="0.25" stroke-width="3" /><line x1="180.0" y1="120.0" x2="560.0" y2="868.2" stroke="#8b5cf6" stroke-opacity="0.2" stroke-width="2" /><line x1="1090.0" y1="1067.3" x2="1470.0" y2="270.0" stroke="#f97316" stroke-opacity="0.18" stroke-width="2" /><line x1="1090.0" y1="1067.3" x2="1470.0" y2="700.0" stroke="#334155" stroke-opacity="0.18" stroke-width="2" /><line x1="560.0" y1="519.1" x2="1090.0" y2="696.4" stroke="#38bdf8" stroke-opacity="0.25" stroke-width="3" /><line x1="180.0" y1="725.7" x2="560.0" y2="519.1" stroke="#8b5cf6" stroke-opacity="0.2" stroke-width="2" /><line x1="1090.0" y1="696.4" x2="1470.0" y2="270.0" stroke="#f97316" stroke-opacity="0.18" stroke-width="2" /><line x1="1090.0" y1="696.4" x2="1470.0" y2="773.3" stroke="#334155" stroke-opacity="0.18" stroke-width="2" /><line x1="560.0" y1="519.1" x2="1090.0" y2="789.1" stroke="#8b5cf6" stroke-opacity="0.25" stroke-width="3" /><line x1="1090.0" y1="789.1" x2="1470.0" y2="370.0" stroke="#f97316" stroke-opacity="0.18" stroke-width="2" /><line x1="1090.0" y1="789.1" x2="1470.0" y2="700.0" stroke="#334155" stroke-opacity="0.18" stroke-width="2" /><line x1="560.0" y1="955.5" x2="1090.0" y2="418.2" stroke="#38bdf8" stroke-opacity="0.25" stroke-width="3" /><line x1="180.0" y1="120.0" x2="560.0" y2="955.5" stroke="#8b5cf6" stroke-opacity="0.2" stroke-width="2" /><line x1="1090.0" y1="418.2" x2="1470.0" y2="320.0" stroke="#f97316" stroke-opacity="0.18" stroke-width="2" /><line x1="1090.0" y1="418.2" x2="1470.0" y2="773.3" stroke="#334155" stroke-opacity="0.18" stroke-width="2" /><line x1="560.0" y1="1042.7" x2="1090.0" y2="140.0" stroke="#f97316" stroke-opacity="0.25" stroke-width="3" /><line x1="180.0" y1="725.7" x2="560.0" y2="1042.7" stroke="#8b5cf6" stroke-opacity="0.2" stroke-width="2" /><line x1="1090.0" y1="140.0" x2="1470.0" y2="220.0" stroke="#f97316" stroke-opacity="0.18" stroke-width="2" /><line x1="1090.0" y1="140.0" x2="1470.0" y2="700.0" stroke="#334155" stroke-opacity="0.18" stroke-width="2" /><line x1="560.0" y1="955.5" x2="1090.0" y2="325.5" stroke="#38bdf8" stroke-opacity="0.25" stroke-width="3" /><line x1="1090.0" y1="325.5" x2="1470.0" y2="270.0" stroke="#f97316" stroke-opacity="0.18" stroke-width="2" /><line x1="1090.0" y1="325.5" x2="1470.0" y2="700.0" stroke="#334155" stroke-opacity="0.18" stroke-width="2" /><line x1="560.0" y1="519.1" x2="1090.0" y2="325.5" stroke="#f97316" stroke-opacity="0.25" stroke-width="3" /><line x1="560.0" y1="1042.7" x2="1090.0" y2="881.8" stroke="#f97316" stroke-opacity="0.25" stroke-width="3" /><line x1="1090.0" y1="881.8" x2="1470.0" y2="420.0" stroke="#f97316" stroke-opacity="0.18" stroke-width="2" /><line x1="1090.0" y1="881.8" x2="1470.0" y2="846.7" stroke="#334155" stroke-opacity="0.18" stroke-width="2" /><line x1="560.0" y1="1130.0" x2="1090.0" y2="1067.3" stroke="#38bdf8" stroke-opacity="0.25" stroke-width="3" /><line x1="180.0" y1="120.0" x2="560.0" y2="1130.0" stroke="#8b5cf6" stroke-opacity="0.2" stroke-width="2" /><line x1="560.0" y1="519.1" x2="1090.0" y2="232.7" stroke="#8b5cf6" stroke-opacity="0.25" stroke-width="3" /><line x1="1090.0" y1="232.7" x2="1470.0" y2="220.0" stroke="#f97316" stroke-opacity="0.18" stroke-width="2" /><line x1="1090.0" y1="232.7" x2="1470.0" y2="700.0" stroke="#334155" stroke-opacity="0.18" stroke-width="2" /><line x1="560.0" y1="955.5" x2="1090.0" y2="603.6" stroke="#38bdf8" stroke-opacity="0.25" stroke-width="3" /><line x1="1090.0" y1="603.6" x2="1470.0" y2="320.0" stroke="#f97316" stroke-opacity="0.18" stroke-width="2" /><line x1="1090.0" y1="603.6" x2="1470.0" y2="773.3" stroke="#334155" stroke-opacity="0.18" stroke-width="2" /><line x1="560.0" y1="519.1" x2="1090.0" y2="232.7" stroke="#38bdf8" stroke-opacity="0.25" stroke-width="3" /><line x1="560.0" y1="1042.7" x2="1090.0" y2="140.0" stroke="#8b5cf6" stroke-opacity="0.25" stroke-width="3" /><line x1="560.0" y1="519.1" x2="1090.0" y2="974.5" stroke="#f97316" stroke-opacity="0.25" stroke-width="3" /><line x1="1090.0" y1="974.5" x2="1470.0" y2="420.0" stroke="#f97316" stroke-opacity="0.18" stroke-width="2" /><line x1="1090.0" y1="974.5" x2="1470.0" y2="920.0" stroke="#334155" stroke-opacity="0.18" stroke-width="2" /><line x1="560.0" y1="955.5" x2="1090.0" y2="696.4" stroke="#38bdf8" stroke-opacity="0.25" stroke-width="3" /><line x1="560.0" y1="170.0" x2="1090.0" y2="510.9" stroke="#38bdf8" stroke-opacity="0.25" stroke-width="3" /><line x1="180.0" y1="120.0" x2="560.0" y2="170.0" stroke="#8b5cf6" stroke-opacity="0.2" stroke-width="2" /><line x1="1090.0" y1="510.9" x2="1470.0" y2="320.0" stroke="#f97316" stroke-opacity="0.18" stroke-width="2" /><line x1="1090.0" y1="510.9" x2="1470.0" y2="773.3" stroke="#334155" stroke-opacity="0.18" stroke-width="2" /><line x1="560.0" y1="1130.0" x2="1090.0" y2="603.6" stroke="#38bdf8" stroke-opacity="0.25" stroke-width="3" /><line x1="560.0" y1="1042.7" x2="1090.0" y2="1067.3" stroke="#8b5cf6" stroke-opacity="0.25" stroke-width="3" /><line x1="560.0" y1="519.1" x2="1090.0" y2="140.0" stroke="#38bdf8" stroke-opacity="0.25" stroke-width="3" /><line x1="560.0" y1="1042.7" x2="1090.0" y2="1160.0" stroke="#38bdf8" stroke-opacity="0.25" stroke-width="3" /><line x1="1090.0" y1="1160.0" x2="1470.0" y2="370.0" stroke="#f97316" stroke-opacity="0.18" stroke-width="2" /><line x1="1090.0" y1="1160.0" x2="1470.0" y2="700.0" stroke="#334155" stroke-opacity="0.18" stroke-width="2" /><line x1="560.0" y1="519.1" x2="1090.0" y2="1160.0" stroke="#38bdf8" stroke-opacity="0.25" stroke-width="3" /><line x1="560.0" y1="519.1" x2="1090.0" y2="325.5" stroke="#38bdf8" stroke-opacity="0.25" stroke-width="3" /><line x1="560.0" y1="1130.0" x2="1090.0" y2="696.4" stroke="#8b5cf6" stroke-opacity="0.25" stroke-width="3" /><line x1="560.0" y1="170.0" x2="1090.0" y2="418.2" stroke="#38bdf8" stroke-opacity="0.25" stroke-width="3" /><line x1="560.0" y1="868.2" x2="1090.0" y2="696.4" stroke="#38bdf8" stroke-opacity="0.25" stroke-width="3" /><line x1="560.0" y1="868.2" x2="1090.0" y2="1160.0" stroke="#38bdf8" stroke-opacity="0.25" stroke-width="3" /><line x1="560.0" y1="170.0" x2="1090.0" y2="232.7" stroke="#38bdf8" stroke-opacity="0.25" stroke-width="3" /><line x1="560.0" y1="519.1" x2="1090.0" y2="1067.3" stroke="#38bdf8" stroke-opacity="0.25" stroke-width="3" /><line x1="560.0" y1="170.0" x2="1090.0" y2="696.4" stroke="#38bdf8" stroke-opacity="0.25" stroke-width="3" /><line x1="560.0" y1="955.5" x2="1090.0" y2="1067.3" stroke="#8b5cf6" stroke-opacity="0.25" stroke-width="3" /><line x1="560.0" y1="1042.7" x2="1090.0" y2="325.5" stroke="#38bdf8" stroke-opacity="0.25" stroke-width="3" /><line x1="560.0" y1="519.1" x2="1090.0" y2="881.8" stroke="#8b5cf6" stroke-opacity="0.25" stroke-width="3" /><line x1="560.0" y1="170.0" x2="1090.0" y2="603.6" stroke="#f97316" stroke-opacity="0.25" stroke-width="3" /><line x1="560.0" y1="1042.7" x2="1090.0" y2="140.0" stroke="#38bdf8" stroke-opacity="0.25" stroke-width="3" /><line x1="560.0" y1="519.1" x2="1090.0" y2="881.8" stroke="#f97316" stroke-opacity="0.25" stroke-width="3" /><line x1="560.0" y1="868.2" x2="1090.0" y2="510.9" stroke="#38bdf8" stroke-opacity="0.25" stroke-width="3" /><line x1="560.0" y1="170.0" x2="1090.0" y2="1067.3" stroke="#38bdf8" stroke-opacity="0.25" stroke-width="3" /><line x1="560.0" y1="1042.7" x2="1090.0" y2="789.1" stroke="#38bdf8" stroke-opacity="0.25" stroke-width="3" /><line x1="560.0" y1="1042.7" x2="1090.0" y2="232.7" stroke="#38bdf8" stroke-opacity="0.25" stroke-width="3" /><line x1="560.0" y1="1042.7" x2="1090.0" y2="974.5" stroke="#f97316" stroke-opacity="0.25" stroke-width="3" /><line x1="560.0" y1="1130.0" x2="1090.0" y2="232.7" stroke="#38bdf8" stroke-opacity="0.25" stroke-width="3" /><line x1="560.0" y1="170.0" x2="1090.0" y2="325.5" stroke="#38bdf8" stroke-opacity="0.25" stroke-width="3" /><line x1="560.0" y1="1130.0" x2="1090.0" y2="232.7" stroke="#8b5cf6" stroke-opacity="0.25" stroke-width="3" /><line x1="560.0" y1="868.2" x2="1090.0" y2="325.5" stroke="#38bdf8" stroke-opacity="0.25" stroke-width="3" /><line x1="560.0" y1="1042.7" x2="1090.0" y2="1160.0" stroke="#8b5cf6" stroke-opacity="0.25" stroke-width="3" /><line x1="560.0" y1="868.2" x2="1090.0" y2="881.8" stroke="#38bdf8" stroke-opacity="0.25" stroke-width="3" /><line x1="560.0" y1="868.2" x2="1090.0" y2="696.4" stroke="#8b5cf6" stroke-opacity="0.25" stroke-width="3" /><line x1="560.0" y1="1130.0" x2="1090.0" y2="1067.3" stroke="#f97316" stroke-opacity="0.25" stroke-width="3" /><line x1="560.0" y1="1130.0" x2="1090.0" y2="325.5" stroke="#38bdf8" stroke-opacity="0.25" stroke-width="3" /><line x1="560.0" y1="606.4" x2="1090.0" y2="1160.0" stroke="#8b5cf6" stroke-opacity="0.25" stroke-width="3" /><line x1="180.0" y1="877.1" x2="560.0" y2="606.4" stroke="#8b5cf6" stroke-opacity="0.2" stroke-width="2" /><line x1="560.0" y1="606.4" x2="1090.0" y2="789.1" stroke="#8b5cf6" stroke-opacity="0.25" stroke-width="3" /><line x1="560.0" y1="868.2" x2="1090.0" y2="232.7" stroke="#38bdf8" stroke-opacity="0.25" stroke-width="3" /><line x1="560.0" y1="606.4" x2="1090.0" y2="789.1" stroke="#38bdf8" stroke-opacity="0.25" stroke-width="3" /><line x1="560.0" y1="606.4" x2="1090.0" y2="140.0" stroke="#f97316" stroke-opacity="0.25" stroke-width="3" /><line x1="560.0" y1="606.4" x2="1090.0" y2="232.7" stroke="#8b5cf6" stroke-opacity="0.25" stroke-width="3" /><line x1="560.0" y1="1130.0" x2="1090.0" y2="789.1" stroke="#8b5cf6" stroke-opacity="0.25" stroke-width="3" /><line x1="560.0" y1="257.3" x2="1090.0" y2="232.7" stroke="#38bdf8" stroke-opacity="0.25" stroke-width="3" /><line x1="180.0" y1="271.4" x2="560.0" y2="257.3" stroke="#8b5cf6" stroke-opacity="0.2" stroke-width="2" /><line x1="560.0" y1="606.4" x2="1090.0" y2="1160.0" stroke="#f97316" stroke-opacity="0.25" stroke-width="3" /><line x1="560.0" y1="606.4" x2="1090.0" y2="1067.3" stroke="#38bdf8" stroke-opacity="0.25" stroke-width="3" /><line x1="560.0" y1="257.3" x2="1090.0" y2="140.0" stroke="#8b5cf6" stroke-opacity="0.25" stroke-width="3" /><line x1="560.0" y1="1042.7" x2="1090.0" y2="881.8" stroke="#8b5cf6" stroke-opacity="0.25" stroke-width="3" /><line x1="560.0" y1="606.4" x2="1090.0" y2="881.8" stroke="#8b5cf6" stroke-opacity="0.25" stroke-width="3" /><line x1="560.0" y1="868.2" x2="1090.0" y2="1160.0" stroke="#8b5cf6" stroke-opacity="0.25" stroke-width="3" /><line x1="560.0" y1="606.4" x2="1090.0" y2="1067.3" stroke="#8b5cf6" stroke-opacity="0.25" stroke-width="3" /><line x1="560.0" y1="606.4" x2="1090.0" y2="1160.0" stroke="#38bdf8" stroke-opacity="0.25" stroke-width="3" /><line x1="560.0" y1="257.3" x2="1090.0" y2="789.1" stroke="#38bdf8" stroke-opacity="0.25" stroke-width="3" /><line x1="560.0" y1="606.4" x2="1090.0" y2="140.0" stroke="#8b5cf6" stroke-opacity="0.25" stroke-width="3" /><line x1="560.0" y1="955.5" x2="1090.0" y2="140.0" stroke="#38bdf8" stroke-opacity="0.25" stroke-width="3" /><line x1="560.0" y1="606.4" x2="1090.0" y2="789.1" stroke="#f97316" stroke-opacity="0.25" stroke-width="3" /><line x1="560.0" y1="1042.7" x2="1090.0" y2="1160.0" stroke="#f97316" stroke-opacity="0.25" stroke-width="3" /><line x1="560.0" y1="1042.7" x2="1090.0" y2="696.4" stroke="#38bdf8" stroke-opacity="0.25" stroke-width="3" /><line x1="560.0" y1="606.4" x2="1090.0" y2="325.5" stroke="#38bdf8" stroke-opacity="0.25" stroke-width="3" /><line x1="560.0" y1="1042.7" x2="1090.0" y2="325.5" stroke="#8b5cf6" stroke-opacity="0.25" stroke-width="3" /><line x1="560.0" y1="1042.7" x2="1090.0" y2="974.5" stroke="#38bdf8" stroke-opacity="0.25" stroke-width="3" /><line x1="560.0" y1="257.3" x2="1090.0" y2="881.8" stroke="#38bdf8" stroke-opacity="0.25" stroke-width="3" /><line x1="560.0" y1="606.4" x2="1090.0" y2="881.8" stroke="#f97316" stroke-opacity="0.25" stroke-width="3" /><line x1="560.0" y1="1042.7" x2="1090.0" y2="232.7" stroke="#8b5cf6" stroke-opacity="0.25" stroke-width="3" /><line x1="560.0" y1="606.4" x2="1090.0" y2="140.0" stroke="#38bdf8" stroke-opacity="0.25" stroke-width="3" /><line x1="560.0" y1="606.4" x2="1090.0" y2="325.5" stroke="#8b5cf6" stroke-opacity="0.25" stroke-width="3" /><line x1="560.0" y1="1042.7" x2="1090.0" y2="974.5" stroke="#8b5cf6" stroke-opacity="0.25" stroke-width="3" /><line x1="560.0" y1="1130.0" x2="1090.0" y2="510.9" stroke="#38bdf8" stroke-opacity="0.25" stroke-width="3" /><line x1="560.0" y1="170.0" x2="1090.0" y2="1160.0" stroke="#38bdf8" stroke-opacity="0.25" stroke-width="3" /><line x1="560.0" y1="868.2" x2="1090.0" y2="418.2" stroke="#38bdf8" stroke-opacity="0.25" stroke-width="3" /><line x1="560.0" y1="170.0" x2="1090.0" y2="325.5" stroke="#8b5cf6" stroke-opacity="0.25" stroke-width="3" /><line x1="560.0" y1="257.3" x2="1090.0" y2="232.7" stroke="#f97316" stroke-opacity="0.25" stroke-width="3" /><line x1="560.0" y1="257.3" x2="1090.0" y2="325.5" stroke="#f97316" stroke-opacity="0.25" stroke-width="3" /><line x1="560.0" y1="257.3" x2="1090.0" y2="325.5" stroke="#8b5cf6" stroke-opacity="0.25" stroke-width="3" /><line x1="560.0" y1="955.5" x2="1090.0" y2="1067.3" stroke="#38bdf8" stroke-opacity="0.25" stroke-width="3" /><line x1="560.0" y1="1130.0" x2="1090.0" y2="140.0" stroke="#38bdf8" stroke-opacity="0.25" stroke-width="3" /><line x1="560.0" y1="170.0" x2="1090.0" y2="140.0" stroke="#38bdf8" stroke-opacity="0.25" stroke-width="3" /><line x1="560.0" y1="257.3" x2="1090.0" y2="1160.0" stroke="#38bdf8" stroke-opacity="0.25" stroke-width="3" /><line x1="560.0" y1="170.0" x2="1090.0" y2="603.6" stroke="#38bdf8" stroke-opacity="0.25" stroke-width="3" /><line x1="560.0" y1="1130.0" x2="1090.0" y2="1160.0" stroke="#38bdf8" stroke-opacity="0.25" stroke-width="3" /><line x1="560.0" y1="693.6" x2="1090.0" y2="510.9" stroke="#8b5cf6" stroke-opacity="0.25" stroke-width="3" /><line x1="180.0" y1="1028.6" x2="560.0" y2="693.6" stroke="#8b5cf6" stroke-opacity="0.2" stroke-width="2" /><line x1="560.0" y1="344.5" x2="1090.0" y2="418.2" stroke="#38bdf8" stroke-opacity="0.25" stroke-width="3" /><line x1="180.0" y1="422.9" x2="560.0" y2="344.5" stroke="#8b5cf6" stroke-opacity="0.2" stroke-width="2" /><line x1="560.0" y1="693.6" x2="1090.0" y2="510.9" stroke="#f97316" stroke-opacity="0.25" stroke-width="3" /><line x1="560.0" y1="868.2" x2="1090.0" y2="140.0" stroke="#38bdf8" stroke-opacity="0.25" stroke-width="3" /><line x1="560.0" y1="344.5" x2="1090.0" y2="140.0" stroke="#8b5cf6" stroke-opacity="0.25" stroke-width="3" /><line x1="560.0" y1="693.6" x2="1090.0" y2="696.4" stroke="#38bdf8" stroke-opacity="0.25" stroke-width="3" /><line x1="560.0" y1="693.6" x2="1090.0" y2="418.2" stroke="#38bdf8" stroke-opacity="0.25" stroke-width="3" /><line x1="560.0" y1="693.6" x2="1090.0" y2="325.5" stroke="#38bdf8" stroke-opacity="0.25" stroke-width="3" /><line x1="560.0" y1="257.3" x2="1090.0" y2="789.1" stroke="#f97316" stroke-opacity="0.25" stroke-width="3" /><line x1="560.0" y1="344.5" x2="1090.0" y2="603.6" stroke="#f97316" stroke-opacity="0.25" stroke-width="3" /><line x1="560.0" y1="344.5" x2="1090.0" y2="603.6" stroke="#8b5cf6" stroke-opacity="0.25" stroke-width="3" /><line x1="560.0" y1="257.3" x2="1090.0" y2="140.0" stroke="#38bdf8" stroke-opacity="0.25" stroke-width="3" /><line x1="560.0" y1="868.2" x2="1090.0" y2="1160.0" stroke="#f97316" stroke-opacity="0.25" stroke-width="3" /><line x1="560.0" y1="170.0" x2="1090.0" y2="1067.3" stroke="#8b5cf6" stroke-opacity="0.25" stroke-width="3" /><line x1="560.0" y1="344.5" x2="1090.0" y2="603.6" stroke="#38bdf8" stroke-opacity="0.25" stroke-width="3" /><line x1="560.0" y1="693.6" x2="1090.0" y2="1160.0" stroke="#38bdf8" stroke-opacity="0.25" stroke-width="3" /><line x1="560.0" y1="344.5" x2="1090.0" y2="510.9" stroke="#8b5cf6" stroke-opacity="0.25" stroke-width="3" /><line x1="560.0" y1="868.2" x2="1090.0" y2="140.0" stroke="#8b5cf6" stroke-opacity="0.25" stroke-width="3" /><line x1="560.0" y1="693.6" x2="1090.0" y2="325.5" stroke="#f97316" stroke-opacity="0.25" stroke-width="3" /><line x1="560.0" y1="693.6" x2="1090.0" y2="603.6" stroke="#38bdf8" stroke-opacity="0.25" stroke-width="3" /><line x1="560.0" y1="170.0" x2="1090.0" y2="696.4" stroke="#8b5cf6" stroke-opacity="0.25" stroke-width="3" /><line x1="560.0" y1="868.2" x2="1090.0" y2="603.6" stroke="#8b5cf6" stroke-opacity="0.25" stroke-width="3" /><line x1="560.0" y1="344.5" x2="1090.0" y2="418.2" stroke="#8b5cf6" stroke-opacity="0.25" stroke-width="3" /><line x1="560.0" y1="344.5" x2="1090.0" y2="881.8" stroke="#38bdf8" stroke-opacity="0.25" stroke-width="3" /><line x1="560.0" y1="344.5" x2="1090.0" y2="510.9" stroke="#f97316" stroke-opacity="0.25" stroke-width="3" /><line x1="560.0" y1="344.5" x2="1090.0" y2="510.9" stroke="#38bdf8" stroke-opacity="0.25" stroke-width="3" /><line x1="560.0" y1="693.6" x2="1090.0" y2="418.2" stroke="#8b5cf6" stroke-opacity="0.25" stroke-width="3" /><line x1="560.0" y1="693.6" x2="1090.0" y2="510.9" stroke="#38bdf8" stroke-opacity="0.25" stroke-width="3" /><line x1="560.0" y1="344.5" x2="1090.0" y2="140.0" stroke="#38bdf8" stroke-opacity="0.25" stroke-width="3" /><line x1="560.0" y1="344.5" x2="1090.0" y2="1160.0" stroke="#38bdf8" stroke-opacity="0.25" stroke-width="3" /><line x1="560.0" y1="344.5" x2="1090.0" y2="1067.3" stroke="#38bdf8" stroke-opacity="0.25" stroke-width="3" /><line x1="560.0" y1="868.2" x2="1090.0" y2="325.5" stroke="#8b5cf6" stroke-opacity="0.25" stroke-width="3" /><line x1="560.0" y1="693.6" x2="1090.0" y2="140.0" stroke="#f97316" stroke-opacity="0.25" stroke-width="3" /><line x1="560.0" y1="868.2" x2="1090.0" y2="510.9" stroke="#8b5cf6" stroke-opacity="0.25" stroke-width="3" /><line x1="560.0" y1="693.6" x2="1090.0" y2="881.8" stroke="#38bdf8" stroke-opacity="0.25" stroke-width="3" /><line x1="560.0" y1="780.9" x2="1090.0" y2="603.6" stroke="#8b5cf6" stroke-opacity="0.25" stroke-width="3" /><line x1="180.0" y1="1180.0" x2="560.0" y2="780.9" stroke="#8b5cf6" stroke-opacity="0.2" stroke-width="2" /><line x1="560.0" y1="693.6" x2="1090.0" y2="1067.3" stroke="#8b5cf6" stroke-opacity="0.25" stroke-width="3" /><line x1="560.0" y1="780.9" x2="1090.0" y2="510.9" stroke="#8b5cf6" stroke-opacity="0.25" stroke-width="3" /><line x1="560.0" y1="780.9" x2="1090.0" y2="510.9" stroke="#38bdf8" stroke-opacity="0.25" stroke-width="3" /><line x1="560.0" y1="344.5" x2="1090.0" y2="696.4" stroke="#38bdf8" stroke-opacity="0.25" stroke-width="3" /><line x1="560.0" y1="431.8" x2="1090.0" y2="789.1" stroke="#8b5cf6" stroke-opacity="0.25" stroke-width="3" /><line x1="180.0" y1="574.3" x2="560.0" y2="431.8" stroke="#8b5cf6" stroke-opacity="0.2" stroke-width="2" /><line x1="560.0" y1="780.9" x2="1090.0" y2="603.6" stroke="#38bdf8" stroke-opacity="0.25" stroke-width="3" /><line x1="560.0" y1="693.6" x2="1090.0" y2="232.7" stroke="#38bdf8" stroke-opacity="0.25" stroke-width="3" /><line x1="560.0" y1="780.9" x2="1090.0" y2="881.8" stroke="#38bdf8" stroke-opacity="0.25" stroke-width="3" /><line x1="560.0" y1="344.5" x2="1090.0" y2="325.5" stroke="#38bdf8" stroke-opacity="0.25" stroke-width="3" /><line x1="560.0" y1="780.9" x2="1090.0" y2="974.5" stroke="#8b5cf6" stroke-opacity="0.25" stroke-width="3" /><line x1="560.0" y1="431.8" x2="1090.0" y2="789.1" stroke="#38bdf8" stroke-opacity="0.25" stroke-width="3" /><line x1="560.0" y1="344.5" x2="1090.0" y2="1160.0" stroke="#8b5cf6" stroke-opacity="0.25" stroke-width="3" /><line x1="560.0" y1="693.6" x2="1090.0" y2="1067.3" stroke="#f97316" stroke-opacity="0.25" stroke-width="3" /><line x1="560.0" y1="780.9" x2="1090.0" y2="418.2" stroke="#8b5cf6" stroke-opacity="0.25" stroke-width="3" /><line x1="560.0" y1="780.9" x2="1090.0" y2="510.9" stroke="#f97316" stroke-opacity="0.25" stroke-width="3" /><line x1="560.0" y1="780.9" x2="1090.0" y2="696.4" stroke="#f97316" stroke-opacity="0.25" stroke-width="3" /><line x1="560.0" y1="780.9" x2="1090.0" y2="881.8" stroke="#8b5cf6" stroke-opacity="0.25" stroke-width="3" /><line x1="560.0" y1="344.5" x2="1090.0" y2="974.5" stroke="#38bdf8" stroke-opacity="0.25" stroke-width="3" /><line x1="560.0" y1="780.9" x2="1090.0" y2="1067.3" stroke="#38bdf8" stroke-opacity="0.25" stroke-width="3" /><line x1="560.0" y1="780.9" x2="1090.0" y2="974.5" stroke="#f97316" stroke-opacity="0.25" stroke-width="3" /><line x1="560.0" y1="344.5" x2="1090.0" y2="696.4" stroke="#8b5cf6" stroke-opacity="0.25" stroke-width="3" /><line x1="560.0" y1="431.8" x2="1090.0" y2="1160.0" stroke="#38bdf8" stroke-opacity="0.25" stroke-width="3" /><line x1="560.0" y1="780.9" x2="1090.0" y2="881.8" stroke="#f97316" stroke-opacity="0.25" stroke-width="3" /><line x1="560.0" y1="780.9" x2="1090.0" y2="418.2" stroke="#38bdf8" stroke-opacity="0.25" stroke-width="3" /><line x1="560.0" y1="431.8" x2="1090.0" y2="232.7" stroke="#38bdf8" stroke-opacity="0.25" stroke-width="3" /><line x1="560.0" y1="780.9" x2="1090.0" y2="418.2" stroke="#f97316" stroke-opacity="0.25" stroke-width="3" /><line x1="560.0" y1="780.9" x2="1090.0" y2="1160.0" stroke="#38bdf8" stroke-opacity="0.25" stroke-width="3" /><line x1="560.0" y1="780.9" x2="1090.0" y2="325.5" stroke="#8b5cf6" stroke-opacity="0.25" stroke-width="3" /><line x1="560.0" y1="344.5" x2="1090.0" y2="325.5" stroke="#8b5cf6" stroke-opacity="0.25" stroke-width="3" /><line x1="560.0" y1="431.8" x2="1090.0" y2="325.5" stroke="#38bdf8" stroke-opacity="0.25" stroke-width="3" /><line x1="560.0" y1="431.8" x2="1090.0" y2="510.9" stroke="#38bdf8" stroke-opacity="0.25" stroke-width="3" /><line x1="560.0" y1="431.8" x2="1090.0" y2="881.8" stroke="#38bdf8" stroke-opacity="0.25" stroke-width="3" /><line x1="560.0" y1="431.8" x2="1090.0" y2="881.8" stroke="#8b5cf6" stroke-opacity="0.25" stroke-width="3" />
      <circle cx="180.0" cy="120.0" r="42" fill="#8b5cf6" stroke="#ffffff" stroke-width="4" /><text x="180.0" y="126.0" text-anchor="middle" font-size="16" font-weight="700" fill="#ffffff">window_shopper</text><circle cx="180.0" cy="271.4" r="42" fill="#8b5cf6" stroke="#ffffff" stroke-width="4" /><text x="180.0" y="277.4" text-anchor="middle" font-size="16" font-weight="700" fill="#ffffff">brand_loyalist</text><circle cx="180.0" cy="422.9" r="42" fill="#8b5cf6" stroke="#ffffff" stroke-width="4" /><text x="180.0" y="428.9" text-anchor="middle" font-size="16" font-weight="700" fill="#ffffff">spec_research…</text><circle cx="180.0" cy="574.3" r="42" fill="#8b5cf6" stroke="#ffffff" stroke-width="4" /><text x="180.0" y="580.3" text-anchor="middle" font-size="16" font-weight="700" fill="#ffffff">deal_hunter</text><circle cx="180.0" cy="725.7" r="42" fill="#8b5cf6" stroke="#ffffff" stroke-width="4" /><text x="180.0" y="731.7" text-anchor="middle" font-size="16" font-weight="700" fill="#ffffff">cart_ready</text><circle cx="180.0" cy="877.1" r="42" fill="#8b5cf6" stroke="#ffffff" stroke-width="4" /><text x="180.0" y="883.1" text-anchor="middle" font-size="16" font-weight="700" fill="#ffffff">impulse_buyer</text><circle cx="180.0" cy="1028.6" r="42" fill="#8b5cf6" stroke="#ffffff" stroke-width="4" /><text x="180.0" y="1034.6" text-anchor="middle" font-size="16" font-weight="700" fill="#ffffff">premium_upgra…</text><circle cx="180.0" cy="1180.0" r="42" fill="#8b5cf6" stroke="#ffffff" stroke-width="4" /><text x="180.0" y="1186.0" text-anchor="middle" font-size="16" font-weight="700" fill="#ffffff">gaming_spree</text><circle cx="560.0" cy="170.0" r="42" fill="#0ea5e9" stroke="#ffffff" stroke-width="4" /><text x="560.0" y="176.0" text-anchor="middle" font-size="16" font-weight="700" fill="#ffffff">d0e3eb21-663f…</text><circle cx="560.0" cy="257.3" r="42" fill="#0ea5e9" stroke="#ffffff" stroke-width="4" /><text x="560.0" y="263.3" text-anchor="middle" font-size="16" font-weight="700" fill="#ffffff">a391ea03-359b…</text><circle cx="560.0" cy="344.5" r="42" fill="#0ea5e9" stroke="#ffffff" stroke-width="4" /><text x="560.0" y="350.5" text-anchor="middle" font-size="16" font-weight="700" fill="#ffffff">74051dfa-4838…</text><circle cx="560.0" cy="431.8" r="42" fill="#0ea5e9" stroke="#ffffff" stroke-width="4" /><text x="560.0" y="437.8" text-anchor="middle" font-size="16" font-weight="700" fill="#ffffff">7ba8b68f-fa6d…</text><circle cx="560.0" cy="519.1" r="42" fill="#0ea5e9" stroke="#ffffff" stroke-width="4" /><text x="560.0" y="525.1" text-anchor="middle" font-size="16" font-weight="700" fill="#ffffff">70af26e4-81c1…</text><circle cx="560.0" cy="606.4" r="42" fill="#0ea5e9" stroke="#ffffff" stroke-width="4" /><text x="560.0" y="612.4" text-anchor="middle" font-size="16" font-weight="700" fill="#ffffff">a6f4e3a0-2bbb…</text><circle cx="560.0" cy="693.6" r="42" fill="#0ea5e9" stroke="#ffffff" stroke-width="4" /><text x="560.0" y="699.6" text-anchor="middle" font-size="16" font-weight="700" fill="#ffffff">6efdb619-e1f0…</text><circle cx="560.0" cy="780.9" r="42" fill="#0ea5e9" stroke="#ffffff" stroke-width="4" /><text x="560.0" y="786.9" text-anchor="middle" font-size="16" font-weight="700" fill="#ffffff">cf20e2bd-e6f9…</text><circle cx="560.0" cy="868.2" r="42" fill="#0ea5e9" stroke="#ffffff" stroke-width="4" /><text x="560.0" y="874.2" text-anchor="middle" font-size="16" font-weight="700" fill="#ffffff">4a3d5a19-3f95…</text><circle cx="560.0" cy="955.5" r="42" fill="#0ea5e9" stroke="#ffffff" stroke-width="4" /><text x="560.0" y="961.5" text-anchor="middle" font-size="16" font-weight="700" fill="#ffffff">53ee7f44-a802…</text><circle cx="560.0" cy="1042.7" r="42" fill="#0ea5e9" stroke="#ffffff" stroke-width="4" /><text x="560.0" y="1048.7" text-anchor="middle" font-size="16" font-weight="700" fill="#ffffff">d736f927-d164…</text><circle cx="560.0" cy="1130.0" r="42" fill="#0ea5e9" stroke="#ffffff" stroke-width="4" /><text x="560.0" y="1136.0" text-anchor="middle" font-size="16" font-weight="700" fill="#ffffff">c752c8d1-0c0e…</text><circle cx="1090.0" cy="140.0" r="42" fill="#16a34a" stroke="#ffffff" stroke-width="4" /><text x="1090.0" y="146.0" text-anchor="middle" font-size="16" font-weight="700" fill="#ffffff">9763ee37-85e7…</text><circle cx="1090.0" cy="232.7" r="42" fill="#16a34a" stroke="#ffffff" stroke-width="4" /><text x="1090.0" y="238.7" text-anchor="middle" font-size="16" font-weight="700" fill="#ffffff">12487ce5-d03b…</text><circle cx="1090.0" cy="325.5" r="42" fill="#16a34a" stroke="#ffffff" stroke-width="4" /><text x="1090.0" y="331.5" text-anchor="middle" font-size="16" font-weight="700" fill="#ffffff">ac8776cb-d270…</text><circle cx="1090.0" cy="418.2" r="42" fill="#16a34a" stroke="#ffffff" stroke-width="4" /><text x="1090.0" y="424.2" text-anchor="middle" font-size="16" font-weight="700" fill="#ffffff">8fc72082-318d…</text><circle cx="1090.0" cy="510.9" r="42" fill="#16a34a" stroke="#ffffff" stroke-width="4" /><text x="1090.0" y="516.9" text-anchor="middle" font-size="16" font-weight="700" fill="#ffffff">b47b0a7f-c042…</text><circle cx="1090.0" cy="603.6" r="42" fill="#16a34a" stroke="#ffffff" stroke-width="4" /><text x="1090.0" y="609.6" text-anchor="middle" font-size="16" font-weight="700" fill="#ffffff">b356bf39-2370…</text><circle cx="1090.0" cy="696.4" r="42" fill="#16a34a" stroke="#ffffff" stroke-width="4" /><text x="1090.0" y="702.4" text-anchor="middle" font-size="16" font-weight="700" fill="#ffffff">27eac5a9-d3b4…</text><circle cx="1090.0" cy="789.1" r="42" fill="#16a34a" stroke="#ffffff" stroke-width="4" /><text x="1090.0" y="795.1" text-anchor="middle" font-size="16" font-weight="700" fill="#ffffff">6408b503-fc6f…</text><circle cx="1090.0" cy="881.8" r="42" fill="#16a34a" stroke="#ffffff" stroke-width="4" /><text x="1090.0" y="887.8" text-anchor="middle" font-size="16" font-weight="700" fill="#ffffff">2e898e70-60ed…</text><circle cx="1090.0" cy="974.5" r="42" fill="#16a34a" stroke="#ffffff" stroke-width="4" /><text x="1090.0" y="980.5" text-anchor="middle" font-size="16" font-weight="700" fill="#ffffff">74176ee6-b3e7…</text><circle cx="1090.0" cy="1067.3" r="42" fill="#16a34a" stroke="#ffffff" stroke-width="4" /><text x="1090.0" y="1073.3" text-anchor="middle" font-size="16" font-weight="700" fill="#ffffff">40c64ccd-7858…</text><circle cx="1090.0" cy="1160.0" r="42" fill="#16a34a" stroke="#ffffff" stroke-width="4" /><text x="1090.0" y="1166.0" text-anchor="middle" font-size="16" font-weight="700" fill="#ffffff">716f4a9c-9cfa…</text><circle cx="1470.0" cy="220.0" r="42" fill="#f97316" stroke="#ffffff" stroke-width="4" /><text x="1470.0" y="226.0" text-anchor="middle" font-size="16" font-weight="700" fill="#ffffff">Samsung</text><circle cx="1470.0" cy="270.0" r="42" fill="#f97316" stroke="#ffffff" stroke-width="4" /><text x="1470.0" y="276.0" text-anchor="middle" font-size="16" font-weight="700" fill="#ffffff">Apple</text><circle cx="1470.0" cy="320.0" r="42" fill="#f97316" stroke="#ffffff" stroke-width="4" /><text x="1470.0" y="326.0" text-anchor="middle" font-size="16" font-weight="700" fill="#ffffff">ASUS</text><circle cx="1470.0" cy="370.0" r="42" fill="#f97316" stroke="#ffffff" stroke-width="4" /><text x="1470.0" y="376.0" text-anchor="middle" font-size="16" font-weight="700" fill="#ffffff">Xiaomi</text><circle cx="1470.0" cy="420.0" r="42" fill="#f97316" stroke="#ffffff" stroke-width="4" /><text x="1470.0" y="426.0" text-anchor="middle" font-size="16" font-weight="700" fill="#ffffff">Sony</text><circle cx="1470.0" cy="700.0" r="42" fill="#334155" stroke="#ffffff" stroke-width="4" /><text x="1470.0" y="706.0" text-anchor="middle" font-size="16" font-weight="700" fill="#ffffff">Phone</text><circle cx="1470.0" cy="773.3" r="42" fill="#334155" stroke="#ffffff" stroke-width="4" /><text x="1470.0" y="779.3" text-anchor="middle" font-size="16" font-weight="700" fill="#ffffff">Laptop</text><circle cx="1470.0" cy="846.7" r="42" fill="#334155" stroke="#ffffff" stroke-width="4" /><text x="1470.0" y="852.7" text-anchor="middle" font-size="16" font-weight="700" fill="#ffffff">Audio</text><circle cx="1470.0" cy="920.0" r="42" fill="#334155" stroke="#ffffff" stroke-width="4" /><text x="1470.0" y="926.0" text-anchor="middle" font-size="16" font-weight="700" fill="#ffffff">Gaming</text>
    </svg>