<svg xmlns="http://www.w3.org/2000/svg" width="1200" height="700" viewBox="0 0 1200 700">
      <rect width="100%" height="100%" fill="#ffffff" />
      <text x="80" y="48" font-size="28" font-weight="800" fill="#0f172a">Model comparison by macro F1 (%)</text>
      <line x1="80" y1="620.0" x2="1120" y2="620.0" stroke="#e2e8f0" stroke-width="2" /><text x="62" y="626.0" text-anchor="end" font-size="18" fill="#64748b">0</text><line x1="80" y1="485.0" x2="1120" y2="485.0" stroke="#e2e8f0" stroke-width="2" /><text x="62" y="491.0" text-anchor="end" font-size="18" fill="#64748b">10</text><line x1="80" y1="350.0" x2="1120" y2="350.0" stroke="#e2e8f0" stroke-width="2" /><text x="62" y="356.0" text-anchor="end" font-size="18" fill="#64748b">20</text><line x1="80" y1="215.0" x2="1120" y2="215.0" stroke="#e2e8f0" stroke-width="2" /><text x="62" y="221.0" text-anchor="end" font-size="18" fill="#64748b">30</text><line x1="80" y1="80.0" x2="1120" y2="80.0" stroke="#e2e8f0" stroke-width="2" /><text x="62" y="86.0" text-anchor="end" font-size="18" fill="#64748b">41</text>
      <rect x="135.5" y="211.7" width="235.7" height="408.3" rx="18" fill="#16a34a" /><text x="253.3" y="648" text-anchor="middle" font-size="22" fill="#334155">rnn</text><text x="253.3" y="199.7" text-anchor="middle" font-size="20" font-weight="700" fill="#0f172a">31</text><rect x="482.1" y="80.0" width="235.7" height="540.0" rx="18" fill="#16a34a" /><text x="600.0" y="648" text-anchor="middle" font-size="22" fill="#334155">lstm</text><text x="600.0" y="68.0" text-anchor="middle" font-size="20" font-weight="700" fill="#0f172a">41</text><rect x="828.8" y="93.2" width="235.7" height="526.8" rx="18" fill="#16a34a" /><text x="946.7" y="648" text-anchor="middle" font-size="22" fill="#334155">bilstm</text><text x="946.7" y="81.2" text-anchor="middle" font-size="20" font-weight="700" fill="#0f172a">40</text>
    </svg>