<svg xmlns="http://www.w3.org/2000/svg" width="860" height="860" viewBox="0 0 860 860">
      <rect width="100%" height="100%" fill="#ffffff" />
      <text x="110" y="42" font-size="28" font-weight="800" fill="#0f172a">Best model confusion matrix (LSTM)</text>
      <text x="36" y="430.0" transform="rotate(-90 36 430.0)" font-size="20" fill="#475569">Actual</text>
      <text x="430.0" y="832" text-anchor="middle" font-size="20" fill="#475569">Predicted</text>
      <rect x="110.0" y="110.0" width="213.3" height="213.3" fill="rgb(37,230,122)" stroke="#ffffff" stroke-width="2" /><text x="216.7" y="224.7" text-anchor="middle" font-size="20" font-weight="700" fill="#ffffff">691</text><rect x="323.3" y="110.0" width="213.3" height="213.3" fill="rgb(37,170,122)" stroke="#ffffff" stroke-width="2" /><text x="430.0" y="224.7" text-anchor="middle" font-size="20" font-weight="700" fill="#ffffff">487</text><rect x="536.7" y="110.0" width="213.3" height="213.3" fill="rgb(37,93,122)" stroke="#ffffff" stroke-width="2" /><text x="643.3" y="224.7" text-anchor="middle" font-size="20" font-weight="700" fill="#ffffff">218</text><rect x="110.0" y="323.3" width="213.3" height="213.3" fill="rgb(37,119,122)" stroke="#ffffff" stroke-width="2" /><text x="216.7" y="438.0" text-anchor="middle" font-size="20" font-weight="700" fill="#ffffff">310</text><rect x="323.3" y="323.3" width="213.3" height="213.3" fill="rgb(37,101,122)" stroke="#ffffff" stroke-width="2" /><text x="430.0" y="438.0" text-anchor="middle" font-size="20" font-weight="700" fill="#ffffff">248</text><rect x="536.7" y="323.3" width="213.3" height="213.3" fill="rgb(37,67,122)" stroke="#ffffff" stroke-width="2" /><text x="643.3" y="438.0" text-anchor="middle" font-size="20" font-weight="700" fill="#ffffff">131</text><rect x="110.0" y="536.7" width="213.3" height="213.3" fill="rgb(37,73,122)" stroke="#ffffff" stroke-width="2" /><text x="216.7" y="651.3" text-anchor="middle" font-size="20" font-weight="700" fill="#ffffff">152</text><rect x="323.3" y="536.7" width="213.3" height="213.3" fill="rgb(37,78,122)" stroke="#ffffff" stroke-width="2" /><text x="430.0" y="651.3" text-anchor="middle" font-size="20" font-weight="700" fill="#ffffff">168</text><rect x="536.7" y="536.7" width="213.3" height="213.3" fill="rgb(37,84,122)" stroke="#ffffff" stroke-width="2" /><text x="643.3" y="651.3" text-anchor="middle" font-size="20" font-weight="700" fill="#ffffff">190</text>
      <text x="216.7" y="88" text-anchor="middle" font-size="18" fill="#334155">view</text><text x="88" y="222.7" text-anchor="end" font-size="18" fill="#334155">view</text><text x="430.0" y="88" text-anchor="middle" font-size="18" fill="#334155">click</text><text x="88" y="436.0" text-anchor="end" font-size="18" fill="#334155">click</text><text x="643.3" y="88" text-anchor="middle" font-size="18" fill="#334155">add_to_cart</text><text x="88" y="649.3" text-anchor="end" font-size="18" fill="#334155">add_to_cart</text>
    </svg>