<svg xmlns="http://www.w3.org/2000/svg" width="1200" height="700" viewBox="0 0 1200 700">
      <rect width="100%" height="100%" fill="#ffffff" />
      <text x="80" y="48" font-size="28" font-weight="800" fill="#0f172a">Behavior Profile Distribution</text>
      <line x1="80" y1="620.0" x2="1120" y2="620.0" stroke="#e2e8f0" stroke-width="2" /><text x="62" y="626.0" text-anchor="end" font-size="18" fill="#64748b">0</text><line x1="80" y1="485.0" x2="1120" y2="485.0" stroke="#e2e8f0" stroke-width="2" /><text x="62" y="491.0" text-anchor="end" font-size="18" fill="#64748b">15</text><line x1="80" y1="350.0" x2="1120" y2="350.0" stroke="#e2e8f0" stroke-width="2" /><text x="62" y="356.0" text-anchor="end" font-size="18" fill="#64748b">31</text><line x1="80" y1="215.0" x2="1120" y2="215.0" stroke="#e2e8f0" stroke-width="2" /><text x="62" y="221.0" text-anchor="end" font-size="18" fill="#64748b">47</text><line x1="80" y1="80.0" x2="1120" y2="80.0" stroke="#e2e8f0" stroke-width="2" /><text x="62" y="86.0" text-anchor="end" font-size="18" fill="#64748b">63</text>
      <rect x="100.8" y="80.0" width="88.4" height="540.0" rx="18" fill="#8b5cf6" /><text x="145.0" y="648" text-anchor="middle" font-size="22" fill="#334155">window_shopper</text><text x="145.0" y="68.0" text-anchor="middle" font-size="20" font-weight="700" fill="#0f172a">63</text><rect x="230.8" y="80.0" width="88.4" height="540.0" rx="18" fill="#8b5cf6" /><text x="275.0" y="648" text-anchor="middle" font-size="22" fill="#334155">brand_loyalist</text><text x="275.0" y="68.0" text-anchor="middle" font-size="20" font-weight="700" fill="#0f172a">63</text><rect x="360.8" y="80.0" width="88.4" height="540.0" rx="18" fill="#8b5cf6" /><text x="405.0" y="648" text-anchor="middle" font-size="22" fill="#334155">spec_researcher</text><text x="405.0" y="68.0" text-anchor="middle" font-size="20" font-weight="700" fill="#0f172a">63</text><rect x="490.8" y="80.0" width="88.4" height="540.0" rx="18" fill="#8b5cf6" /><text x="535.0" y="648" text-anchor="middle" font-size="22" fill="#334155">deal_hunter</text><text x="535.0" y="68.0" text-anchor="middle" font-size="20" font-weight="700" fill="#0f172a">63</text><rect x="620.8" y="88.6" width="88.4" height="531.4" rx="18" fill="#8b5cf6" /><text x="665.0" y="648" text-anchor="middle" font-size="22" fill="#334155">cart_ready</text><text x="665.0" y="76.6" text-anchor="middle" font-size="20" font-weight="700" fill="#0f172a">62</text><rect x="750.8" y="88.6" width="88.4" height="531.4" rx="18" fill="#8b5cf6" /><text x="795.0" y="648" text-anchor="middle" font-size="22" fill="#334155">impulse_buyer</text><text x="795.0" y="76.6" text-anchor="middle" font-size="20" font-weight="700" fill="#0f172a">62</text><rect x="880.8" y="88.6" width="88.4" height="531.4" rx="18" fill="#8b5cf6" /><text x="925.0" y="648" text-anchor="middle" font-size="22" fill="#334155">premium_upgrade</text><text x="925.0" y="76.6" text-anchor="middle" font-size="20" font-weight="700" fill="#0f172a">62</text><rect x="1010.8" y="88.6" width="88.4" height="531.4" rx="18" fill="#8b5cf6" /><text x="1055.0" y="648" text-anchor="middle" font-size="22" fill="#334155">gaming_spree</text><text x="1055.0" y="76.6" text-anchor="middle" font-size="20" font-weight="700" fill="#0f172a">62</text>
    </svg>