<svg xmlns="http://www.w3.org/2000/svg" width="1720" height="620" viewBox="0 0 1720 620">
      <defs>
        <filter id="shadow" x="-20%" y="-20%" width="140%" height="160%">
          <feDropShadow dx="0" dy="10" stdDeviation="12" flood-color="#0f172a" flood-opacity="0.18" />
        </filter>
      </defs>
      
      <defs>
        <marker id="arrowHead" markerWidth="12" markerHeight="12" refX="10" refY="6" orient="auto">
          <path d="M 0 0 L 12 6 L 0 12 z" fill="#64748b" />
        </marker>
      </defs>
    
      <rect width="100%" height="100%" fill="#f8fafc" />
      <text x="64" y="54" font-size="28" font-weight="800" fill="#0f172a">RAG chat flow</text>
      <text x="64" y="88" font-size="18" fill="#475569">Chat UI truy hồi knowledge chunks và graph facts trước khi sinh câu trả lời</text>
      <line x1="316.7" y1="286.0" x2="342.0" y2="286.0" stroke="#64748b" stroke-width="4" marker-end="url(#arrowHead)" /><line x1="582.0" y1="286.0" x2="607.3" y2="286.0" stroke="#64748b" stroke-width="4" marker-end="url(#arrowHead)" /><line x1="847.3" y1="286.0" x2="872.7" y2="286.0" stroke="#64748b" stroke-width="4" marker-end="url(#arrowHead)" /><line x1="1112.7" y1="286.0" x2="1138.0" y2="286.0" stroke="#64748b" stroke-width="4" marker-end="url(#arrowHead)" /><line x1="1378.0" y1="286.0" x2="1403.3" y2="286.0" stroke="#64748b" stroke-width="4" marker-end="url(#arrowHead)" />
      <rect x="76.7" y="222.0" width="240.0" height="128.0" rx="22" fill="#0ea5e9" stroke="#ffffff" stroke-width="3" filter="url(#shadow)" /><text text-anchor="middle" x="196.7" y="276.0"><tspan x="196.7" dy="0" font-size="20" font-weight="700" fill="#ffffff">User</tspan></text><text x="196.7" y="320" text-anchor="middle" font-size="14" fill="rgba(255,255,255,0.92)">Ask a shopping question</text><rect x="342.0" y="222.0" width="240.0" height="128.0" rx="22" fill="#2563eb" stroke="#ffffff" stroke-width="3" filter="url(#shadow)" /><text text-anchor="middle" x="462.0" y="276.0"><tspan x="462.0" dy="0" font-size="20" font-weight="700" fill="#ffffff">Chat UI</tspan></text><text x="462.0" y="320" text-anchor="middle" font-size="14" fill="rgba(255,255,255,0.92)">Next.js page</text><rect x="607.3" y="222.0" width="240.0" height="128.0" rx="22" fill="#475569" stroke="#ffffff" stroke-width="3" filter="url(#shadow)" /><text text-anchor="middle" x="727.3" y="276.0"><tspan x="727.3" dy="0" font-size="20" font-weight="700" fill="#ffffff">Gateway</tspan></text><text x="727.3" y="320" text-anchor="middle" font-size="14" fill="rgba(255,255,255,0.92)">Nginx proxy</text><rect x="872.7" y="222.0" width="240.0" height="128.0" rx="22" fill="#7c3aed" stroke="#ffffff" stroke-width="3" filter="url(#shadow)" /><text text-anchor="middle" x="992.7" y="276.0"><tspan x="992.7" dy="0" font-size="20" font-weight="700" fill="#ffffff">RAG Engine</tspan></text><text x="992.7" y="320" text-anchor="middle" font-size="14" fill="rgba(255,255,255,0.92)">Intent + retrieval</text><rect x="1138.0" y="222.0" width="240.0" height="128.0" rx="22" fill="#16a34a" stroke="#ffffff" stroke-width="3" filter="url(#shadow)" /><text text-anchor="middle" x="1258.0" y="276.0"><tspan x="1258.0" dy="0" font-size="20" font-weight="700" fill="#ffffff">KB_Graph</tspan></text><text x="1258.0" y="320" text-anchor="middle" font-size="14" fill="rgba(255,255,255,0.92)">Neo4j + docs</text><rect x="1403.3" y="222.0" width="240.0" height="128.0" rx="22" fill="#f97316" stroke="#ffffff" stroke-width="3" filter="url(#shadow)" /><text text-anchor="middle" x="1523.3" y="276.0"><tspan x="1523.3" dy="0" font-size="20" font-weight="700" fill="#ffffff">Answer</tspan></text><text x="1523.3" y="320" text-anchor="middle" font-size="14" fill="rgba(255,255,255,0.92)">Sources + products</text>
    </svg>